# xmcd
#
# Track frame offsets:
#	150
#	13952
#	29215
#	42212
#	54845
#	69322
#	79782
#	94092
#	105772
#	119735
#
# Disc length: 1713 seconds
#
# Revision: 1
# Processed by: cddbd v1.5.1PL0 Copyright (c) Steve Scherf et al.
# Submitted via: audiograbber 1.83.01
#
DISCID=7d06af0a
DTITLE=Leslie Morrisett - Beautiful Fantasy
DYEAR=2005
DGENRE=Country
TTITLE0=Dream Lover
TTITLE1=Too Young To Fall In Love
TTITLE2=You Dont Have To Knock Anymore
TTITLE3=My Mother's House
TTITLE4=Willy Jones
TTITLE5=Beautiful Fantasy
TTITLE6=Keep It On The Country Side
TTITLE7=Would You If I Do
TTITLE8=Young World
TTITLE9=Over My Head
EXTD=
EXTT0=
EXTT1=
EXTT2=
EXTT3=
EXTT4=
EXTT5=
EXTT6=
EXTT7=
EXTT8=
EXTT9=
PLAYORDER=
